
<?xml version="1.0" encoding="UTF-8" standalone="no"?>
<!DOCTYPE svg PUBLIC "-//W3C//DTD SVG 1.1//EN" "http://www.w3.org/Graphics/SVG/1.1/DTD/svg11.dtd">
<svg width="100%" height="100%" viewBox="0 0 800 800" version="1.1" xmlns="http://www.w3.org/2000/svg" xmlns:xlink="http://www.w3.org/1999/xlink" xml:space="preserve" xmlns:serif="http://www.serif.com/" style="fill-rule:evenodd;clip-rule:evenodd;stroke-linecap:round;stroke-linejoin:round;stroke-miterlimit:1.5;">
    <g transform="matrix(0.78125,0,0,0.78125,0,0)">
        <path d="M919.579,285.272L883.105,291.699L873.898,313.941L919.579,313.941C927.301,313.941 930.212,322.297 930.212,330.019L930.212,708.227C930.212,746.843 902.166,775.713 863.549,775.713L583.393,775.713C560.221,775.713 538.063,797.115 538.063,820.288L538.063,824.859L481.749,824.859L481.749,820.288C481.749,797.115 466.489,775.713 443.317,775.713L163.162,775.713C124.545,775.713 89.601,746.843 89.601,708.227L89.601,330.019C89.601,322.297 99.41,313.941 107.132,313.941L145.915,313.941L145.915,285.272L107.132,285.272C83.96,285.272 61.956,306.845 61.956,330.019L61.956,708.227C61.956,762.295 109.095,803.358 163.162,803.358L443.317,803.358C451.039,803.358 454.104,812.566 454.104,820.288L454.104,827.291C454.104,842.742 469.889,852.503 485.34,852.503L541.371,852.503C556.822,852.503 565.709,842.742 565.709,827.291L565.709,820.288C565.709,812.566 575.672,803.358 583.395,803.358L863.548,803.358C917.616,803.358 957.856,762.294 957.856,708.227L957.856,330.019C957.856,306.846 942.752,285.272 919.579,285.272Z" style="fill:rgb(255,116,21);fill-rule:nonzero;"/>
    </g>
    <g transform="matrix(0.78125,0,0,0.78125,0,0)">
        <path d="M698.278,302.566C699.19,302.338 723.221,313.941 723.221,313.941L580.042,313.941L580.042,285.272L681.087,285.272L698.278,302.566ZM271.853,411.21L439.77,411.21L439.77,439.879L271.853,439.879L271.853,411.21ZM271.853,348.753L439.77,348.753L439.77,376.398L271.853,376.398L271.853,348.753ZM271.853,285.272L439.77,285.272L439.77,313.941L271.853,313.941L271.853,285.272ZM580.042,348.753L747.959,348.753L747.959,376.398L580.042,376.398L580.042,348.753ZM580.042,411.21L747.959,411.21L747.959,439.879L580.042,439.879L580.042,411.21Z" style="fill:rgb(255,116,21);fill-rule:nonzero;"/>
    </g>
    <path d="M693.933,235.018L693.933,520.471C693.933,550.641 673.216,573.229 644.553,573.229L444.834,573.229C426.73,573.229 412.003,589.228 412.003,606.026L390.116,606.026C390.116,589.228 375.389,573.229 357.286,573.229L157.566,573.229C128.904,573.229 102.798,550.641 102.798,520.471L102.798,224.996C102.798,200.86 122.769,179.673 143.887,179.673L152.393,179.673L152.393,175.751C152.393,151.613 174.468,130.079 198.604,130.079L329.926,130.079C360.339,130.079 386.88,146.743 401.059,171.382C415.238,146.743 441.779,130.079 472.192,130.079L487.326,130.079C487.028,133.597 486.876,137.157 486.876,140.752C486.876,144.433 487.035,148.076 487.348,151.677L472.192,151.677C439.003,151.677 409.163,180.865 409.163,214.053L409.163,535.99C425.961,519.764 448.4,507.637 472.192,507.637L603.514,507.637C615.585,507.637 622.739,499.711 622.739,487.641L622.739,265.285C630.14,264.647 637.358,263.363 644.336,261.489L644.336,487.641C644.336,511.777 627.65,529.234 603.513,529.234L472.191,529.234C451.305,529.234 432.884,540.192 422.087,556.391C429.025,553.204 436.712,551.632 444.833,551.632L644.552,551.632C661.144,551.632 671.533,538.575 671.533,520.471L671.533,250.604C679.573,246.225 687.081,240.989 693.933,235.018ZM157.566,551.632L357.284,551.632C365.405,551.632 373.092,553.203 380.029,556.391C369.231,540.192 350.811,529.234 329.925,529.234L198.603,529.234C174.467,529.234 152.392,511.777 152.392,487.641L152.392,201.271L143.886,201.271C134.989,201.271 124.395,213.134 124.395,224.996L124.395,520.471C124.395,538.575 140.974,551.632 157.566,551.632ZM173.99,175.751L173.99,487.641C173.99,499.712 186.534,507.637 198.604,507.637L329.925,507.637C353.683,507.637 376.367,519.675 387.565,535.861L387.565,214.053C387.565,180.864 363.114,151.677 329.925,151.677L198.603,151.677C186.533,151.677 173.99,163.68 173.99,175.751Z" style="fill:rgb(38,38,38);"/>
    <g transform="matrix(0.78125,0,0,0.78125,0,0)">
        <path d="M439.77,544.642C439.77,552.379 433.499,558.65 425.762,558.65L285.861,558.65C278.124,558.65 271.853,552.379 271.853,544.642L271.853,488.699C271.853,480.963 278.124,474.692 285.861,474.692L425.762,474.692C433.499,474.692 439.77,480.963 439.77,488.699L439.77,544.642ZM747.959,544.642C747.959,552.379 741.688,558.65 733.952,558.65L594.05,558.65C586.314,558.65 580.042,552.379 580.042,544.642L580.042,488.699C580.042,480.963 586.314,474.692 594.05,474.692L733.952,474.692C741.688,474.692 747.959,480.963 747.959,488.699L747.959,544.642Z" style="fill:rgb(224,224,224);fill-rule:nonzero;"/>
    </g>
    <path d="M487.326,130.079C492.748,66.077 546.481,15.752 611.876,15.752C680.865,15.752 736.876,71.763 736.876,140.752C736.876,178.351 720.24,212.095 693.933,235.018C687.081,240.989 679.573,246.225 671.533,250.604C663.016,255.243 653.902,258.92 644.336,261.489C637.358,263.363 630.14,264.647 622.739,265.285C619.159,265.594 615.536,265.752 611.876,265.752C546.567,265.752 492.889,215.558 487.348,151.677C487.035,148.076 486.876,144.433 486.876,140.752C486.876,137.157 487.028,133.597 487.326,130.079Z" style="fill:rgb(235,235,235);fill-opacity:0;stroke:rgb(38,38,38);stroke-width:21px;"/>
    <path d="M480.543,151.05C474.747,151.05 470.043,146.346 470.043,140.55C470.043,134.755 474.747,130.05 480.543,130.05L738.752,130.05C744.547,130.05 749.252,134.755 749.252,140.55C749.252,146.346 744.547,151.05 738.752,151.05L480.543,151.05Z" style="fill:rgb(235,235,235);fill-opacity:0;"/>
    <g transform="matrix(1,0,0,1,0,1)">
        <path d="M552.648,106.041L612.061,140.055" style="fill:none;stroke:rgb(255,116,21);stroke-width:21px;"/>
    </g>
    <g transform="matrix(0.988671,0.0113293,0.0113293,0.988671,6.93129,-5.93129)">
        <path d="M682.457,76.649L610.441,141.676" style="fill:none;stroke:rgb(255,116,21);stroke-width:21px;"/>
    </g>
    <path d="M523.066,130.511C528.861,130.522 533.557,135.236 533.546,141.031C533.535,146.826 528.822,151.522 523.027,151.511L517.013,151.5C511.218,151.489 506.522,146.775 506.533,140.98C506.543,135.185 511.257,130.489 517.052,130.5L523.066,130.511Z" style="fill:rgb(38,38,38);"/>
    <g transform="matrix(1,0,0,1,1,2)">
        <path d="M709.036,138.976L703.012,139.004" style="fill:none;stroke:rgb(38,38,38);stroke-width:21px;"/>
    </g>
    <g transform="matrix(1,0,0,1,4,1)">
        <path d="M608,40.002L608.026,45.966" style="fill:none;stroke:rgb(38,38,38);stroke-width:21px;"/>
    </g>
    <g transform="matrix(1,0,0,1,0,3)">
        <path d="M613.999,238.036L613.996,232.032" style="fill:none;stroke:rgb(38,38,38);stroke-width:21px;"/>
    </g>
</svg>
