<?xml version="1.0" encoding="UTF-8" standalone="no"?>
<!DOCTYPE svg PUBLIC "-//W3C//DTD SVG 1.1//EN" "http://www.w3.org/Graphics/SVG/1.1/DTD/svg11.dtd">
<svg width="100%" height="100%" viewBox="0 0 800 800" version="1.1" xmlns="http://www.w3.org/2000/svg" xmlns:xlink="http://www.w3.org/1999/xlink" xml:space="preserve" xmlns:serif="http://www.serif.com/" style="fill-rule:evenodd;clip-rule:evenodd;stroke-linecap:round;stroke-linejoin:round;stroke-miterlimit:1.5;">
    <g transform="matrix(0.78125,0,0,0.78125,0,0)">
        <path d="M919.579,285.272L883.105,291.699L873.898,313.941L919.579,313.941C927.301,313.941 930.212,322.297 930.212,330.019L930.212,708.227C930.212,746.843 902.166,775.713 863.549,775.713L583.393,775.713C560.221,775.713 538.063,797.115 538.063,820.288L538.063,824.859L481.749,824.859L481.749,820.288C481.749,797.115 466.489,775.713 443.317,775.713L163.162,775.713C124.545,775.713 89.601,746.843 89.601,708.227L89.601,330.019C89.601,322.297 99.41,313.941 107.132,313.941L145.915,313.941L162.182,285.272L919.579,285.272ZM163.162,342.61C155.44,342.61 149.284,348.766 149.284,356.488L149.284,708.227C149.284,716.834 156.555,724.105 165.162,724.105L443.317,724.105C481.934,724.105 520.382,746.845 520.382,785.462L520.382,791.033L500.13,791.033L500.13,785.462C500.13,757.072 476.544,734.972 448.154,734.972L165.162,734.972C124.545,734.972 89.601,708.227 89.601,708.227L89.601,356.488C89.601,337.539 104.213,342.61 123.162,342.61L163.162,342.61Z" style="fill:rgb(163,163,163);"/>
    </g>
    <g transform="matrix(0.78125,0,0,0.78125,0,0)">
        <path d="M698.278,302.566C699.19,302.338 723.221,313.941 723.221,313.941L580.042,313.941L580.042,285.272L681.087,285.272L698.278,302.566ZM271.853,411.21L439.77,411.21L439.77,439.879L271.853,439.879L271.853,411.21ZM271.853,348.753L439.77,348.753L439.77,376.398L271.853,376.398L271.853,348.753ZM271.853,285.272L439.77,285.272L439.77,313.941L271.853,313.941L271.853,285.272ZM580.042,348.753L747.959,348.753L747.959,376.398L580.042,376.398L580.042,348.753ZM580.042,411.21L747.959,411.21L747.959,439.879L580.042,439.879L580.042,411.21Z" style="fill:rgb(163,163,163);"/>
    </g>
    <path d="M693.933,235.018L693.933,520.471C693.933,550.641 673.216,573.229 644.553,573.229L444.834,573.229C426.73,573.229 412.003,589.228 412.003,606.026L390.116,606.026C390.116,589.228 375.389,573.229 357.286,573.229L157.566,573.229C128.904,573.229 102.798,550.641 102.798,520.471L102.798,224.996C102.798,200.86 122.769,179.673 143.887,179.673L152.393,179.673L152.393,175.751C152.393,151.613 174.468,130.079 198.604,130.079L329.926,130.079C360.339,130.079 386.88,146.743 401.059,171.833C415.238,146.743 441.779,130.079 472.193,130.079L603.514,130.079C627.651,130.079 649.726,151.613 649.726,175.751L649.726,179.673L658.232,179.673C679.35,179.673 693.933,200.86 693.933,235.018Z" style="fill:rgb(220,220,220);"/>
    <g transform="matrix(0.78125,0,0,0.78125,0,0)">
        <path d="M439.77,544.642C439.77,552.379 433.499,558.65 425.762,558.65L285.861,558.65C278.124,558.65 271.853,552.379 271.853,544.642L271.853,488.699C271.853,480.963 278.124,474.692 285.861,474.692L425.762,474.692C433.499,474.692 439.77,480.963 439.77,488.699L439.77,544.642ZM747.959,544.642C747.959,552.379 741.688,558.65 733.952,558.65L594.05,558.65C586.314,558.65 580.042,552.379 580.042,544.642L580.042,488.699C580.042,480.963 586.314,474.692 594.05,474.692L733.952,474.692C741.688,474.692 747.959,480.963 747.959,488.699L747.959,544.642Z" style="fill:rgb(255,255,255);"/>
    </g>
    <path d="M487.326,130.079C492.748,66.077 546.481,15.752 611.876,15.752C680.865,15.752 736.876,71.763 736.876,140.752C736.876,178.351 720.24,212.095 693.933,235.018C687.081,240.989 679.573,246.225 671.533,250.604C663.016,255.243 653.902,258.92 644.336,261.489C637.358,263.363 630.14,264.647 622.739,265.285C619.159,265.594 615.536,265.752 611.876,265.752C546.567,265.752 492.889,215.558 487.348,151.677C487.035,148.076 486.876,144.433 486.876,140.752C486.876,137.157 487.028,133.597 487.326,130.079Z" style="fill:rgb(255,116,21);"/>
    <path d="M480.543,151.05C474.747,151.05 470.043,146.346 470.043,140.55C470.043,134.755 474.747,130.05 480.543,130.05L738.752,130.05C744.547,130.05 749.252,134.755 749.252,140.55C749.252,146.346 744.547,151.05 738.752,151.05L480.543,151.05Z" style="fill:rgb(235,235,235);fill-opacity:0;"/>
    <g transform="matrix(1,0,0,1,0,1)">
        <path d="M552.648,106.041L612.061,140.055" style="fill:none;stroke:rgb(255,116,21);stroke-width:21px;"/>
    </g>
    <g transform="matrix(0.988671,0.0113293,0.0113293,0.988671,6.93129,-5.93129)">
        <path d="M682.457,76.649L610.441,141.676" style="fill:none;stroke:rgb(255,116,21);stroke-width:21px;"/>
    </g>
    <path d="M523.066,130.511C528.861,130.522 533.557,135.236 533.546,141.031C533.535,146.826 528.822,151.522 523.027,151.511L517.013,151.5C511.218,151.489 506.522,146.775 506.533,140.98C506.543,135.185 511.257,130.489 517.052,130.5L523.066,130.511Z" style="fill:rgb(38,38,38);"/>
    <g transform="matrix(1,0,0,1,1,2)">
        <path d="M709.036,138.976L703.012,139.004" style="fill:none;stroke:rgb(38,38,38);stroke-width:21px;"/>
    </g>
    <g transform="matrix(1,0,0,1,4,1)">
        <path d="M608,40.002L608.026,45.966" style="fill:none;stroke:rgb(38,38,38);stroke-width:21px;"/>
    </g>
    <g transform="matrix(1,0,0,1,0,3)">
        <path d="M613.999,238.036L613.996,232.032" style="fill:none;stroke:rgb(38,38,38);stroke-width:21px;"/>
    </g>
</svg>