<svg xmlns="http://www.w3.org/2000/svg" viewBox="0 0 512 512" width="512" height="512">
  <defs>
    <linearGradient id="bg" x1="0%" y1="0%" x2="100%" y2="100%">
      <stop offset="0%" style="stop-color:#f5f2e8;stop-opacity:1" />
      <stop offset="100%" style="stop-color:#e8e2d5;stop-opacity:1" />
    </linearGradient>
    <linearGradient id="hair" x1="0%" y1="0%" x2="100%" y2="100%">
      <stop offset="0%" style="stop-color:#d4956a;stop-opacity:1" />
      <stop offset="100%" style="stop-color:#b8744a;stop-opacity:1" />
    </linearGradient>
    <linearGradient id="skin" x1="0%" y1="0%" x2="100%" y2="100%">
      <stop offset="0%" style="stop-color:#fce4d6;stop-opacity:1" />
      <stop offset="100%" style="stop-color:#f7d7c4;stop-opacity:1" />
    </linearGradient>
  </defs>
  
  <!-- Background -->
  <rect width="512" height="512" rx="96" fill="url(#bg)"/>
  
  <!-- Desk -->
  <rect x="80" y="320" width="352" height="120" rx="8" fill="#d4956a" stroke="#b8744a" stroke-width="3"/>
  
  <!-- Girl's head -->
  <circle cx="200" cy="240" r="45" fill="url(#skin)" stroke="#d4956a" stroke-width="2"/>
  
  <!-- Hair -->
  <path d="M155 220 Q155 190 180 175 Q200 165 220 175 Q245 190 245 220 Q245 200 240 180 Q235 160 220 155 Q200 150 180 155 Q165 160 160 180 Q155 200 155 220" fill="url(#hair)" stroke="#b8744a" stroke-width="2"/>
  
  <!-- Ponytail -->
  <ellipse cx="155" cy="210" rx="12" ry="25" fill="url(#hair)" stroke="#b8744a" stroke-width="2"/>
  
  <!-- Face features -->
  <circle cx="185" cy="230" r="2" fill="#8b4513"/>
  <circle cx="215" cy="230" r="2" fill="#8b4513"/>
  <path d="M190 245 Q200 250 210 245" stroke="#d4956a" stroke-width="1.5" fill="none"/>
  
  <!-- Body -->
  <rect x="175" y="280" width="50" height="60" rx="25" fill="#f7e8d3" stroke="#d4956a" stroke-width="2"/>
  
  <!-- Arms -->
  <ellipse cx="160" cy="300" rx="8" ry="20" fill="url(#skin)" stroke="#d4956a" stroke-width="2"/>
  <ellipse cx="240" cy="300" rx="8" ry="20" fill="url(#skin)" stroke="#d4956a" stroke-width="2"/>
  
  <!-- Book -->
  <rect x="220" y="340" width="60" height="40" rx="4" fill="#90ab98" stroke="#7a9785" stroke-width="2"/>
  <line x1="230" y1="345" x2="270" y2="345" stroke="#7a9785" stroke-width="1"/>
  <line x1="230" y1="355" x2="270" y2="355" stroke="#7a9785" stroke-width="1"/>
  <line x1="230" y1="365" x2="260" y2="365" stroke="#7a9785" stroke-width="1"/>
  
  <!-- Coffee cup -->
  <ellipse cx="320" cy="355" rx="15" ry="12" fill="#eebc81" stroke="#d4956a" stroke-width="2"/>
  <rect x="305" y="345" width="30" height="15" fill="#8b4513"/>
  <path d="M335 350 Q345 350 345 360 Q345 370 335 370" stroke="#d4956a" stroke-width="2" fill="none"/>
  
  <!-- Plant pot -->
  <rect x="380" y="350" width="20" height="20" rx="2" fill="#d4956a" stroke="#b8744a" stroke-width="2"/>
  <ellipse cx="390" cy="345" rx="8" ry="4" fill="#90ab98"/>
  <path d="M385 340 Q390 335 395 340" stroke="#7a9785" stroke-width="2" fill="none"/>
  
  <!-- Study materials on wall -->
  <rect x="300" y="150" width="40" height="30" rx="4" fill="#caffbf" stroke="#90ab98" stroke-width="2"/>
  <line x1="310" y1="160" x2="330" y2="160" stroke="#90ab98" stroke-width="1"/>
  <line x1="310" y1="170" x2="330" y2="170" stroke="#90ab98" stroke-width="1"/>
  
  <!-- Books stack -->
  <rect x="100" y="340" width="40" height="8" rx="2" fill="#e38d88" stroke="#d4746f" stroke-width="1"/>
  <rect x="100" y="348" width="40" height="8" rx="2" fill="#ffd670" stroke="#e6c266" stroke-width="1"/>
  <rect x="100" y="356" width="40" height="8" rx="2" fill="#a0c4ff" stroke="#8db3ff" stroke-width="1"/>
  
  <!-- Pen in hand -->
  <rect x="210" y="315" width="2" height="15" fill="#8b4513" transform="rotate(15 211 322)"/>
</svg>